<?xml version="1.0" encoding="UTF-8" standalone="no"?>
<!DOCTYPE svg PUBLIC "-//W3C//DTD SVG 1.1//EN"
 "http://www.w3.org/Graphics/SVG/1.1/DTD/svg11.dtd">
<!-- Generated by graphviz version 8.1.0 (20230707.2238)
 -->
<!-- Title: DL_Analysis_Workflow Pages: 1 -->
<svg width="1684pt" height="979pt"
 viewBox="0.00 0.00 1683.85 979.00" xmlns="http://www.w3.org/2000/svg" xmlns:xlink="http://www.w3.org/1999/xlink">
<g id="graph0" class="graph" transform="scale(1 1) rotate(0) translate(4 975)">
<title>DL_Analysis_Workflow</title>
<polygon fill="white" stroke="none" points="-4,4 -4,-975 1679.85,-975 1679.85,4 -4,4"/>
<g id="clust1" class="cluster">
<title>cluster_entry</title>
<polygon fill="lightgrey" stroke="lightgrey" points="8,-74 8,-329 151,-329 151,-74 8,-74"/>
<text text-anchor="middle" x="79.5" y="-311.7" font-family="Times,serif" font-size="14.00">Entry Points</text>
</g>
<g id="clust2" class="cluster">
<title>cluster_core</title>
<polygon fill="lightblue" stroke="lightblue" points="572.7,-738 572.7,-873 1038.28,-873 1038.28,-738 572.7,-738"/>
<text text-anchor="middle" x="805.49" y="-855.7" font-family="Times,serif" font-size="14.00">Core Pipeline (run.py)</text>
</g>
<g id="clust3" class="cluster">
<title>cluster_train</title>
<polygon fill="lightgreen" stroke="lightgreen" points="1200.1,-739 1200.1,-924 1422.1,-924 1422.1,-739 1200.1,-739"/>
<text text-anchor="middle" x="1311.1" y="-906.7" font-family="Times,serif" font-size="14.00">Training Functions (train.py)</text>
</g>
<g id="clust4" class="cluster">
<title>cluster_test</title>
<polygon fill="lightyellow" stroke="lightyellow" points="886.28,-653 886.28,-730 1667.85,-730 1667.85,-653 886.28,-653"/>
<text text-anchor="middle" x="1277.06" y="-712.7" font-family="Times,serif" font-size="14.00">Testing Functions (test.py)</text>
</g>
<g id="clust5" class="cluster">
<title>cluster_data</title>
<polygon fill="plum" stroke="plum" points="869.4,-506 869.4,-645 1077.65,-645 1077.65,-506 869.4,-506"/>
<text text-anchor="middle" x="973.53" y="-627.7" font-family="Times,serif" font-size="14.00">Data Loading (datasets.py)</text>
</g>
<g id="clust6" class="cluster">
<title>cluster_models</title>
<polygon fill="peachpuff" stroke="peachpuff" points="895.9,-313 895.9,-498 1051.15,-498 1051.15,-313 895.9,-313"/>
<text text-anchor="middle" x="973.53" y="-480.7" font-family="Times,serif" font-size="14.00">Models (models.py)</text>
</g>
<g id="clust7" class="cluster">
<title>cluster_utils</title>
<polygon fill="lightgray" stroke="lightgray" points="870.53,-12 870.53,-305 1076.53,-305 1076.53,-12 870.53,-12"/>
<text text-anchor="middle" x="973.53" y="-287.7" font-family="Times,serif" font-size="14.00">Utilities (cnn_utils.py)</text>
</g>
<g id="clust8" class="cluster">
<title>cluster_legend</title>
<polygon fill="white" stroke="white" points="9.87,-408 9.87,-863 149.13,-863 149.13,-408 9.87,-408"/>
<text text-anchor="middle" x="79.5" y="-845.7" font-family="Times,serif" font-size="14.00">Legend</text>
</g>
<!-- run_train_py -->
<g id="node1" class="node">
<title>run_train_py</title>
<path fill="#ff6b6b" stroke="black" d="M127.62,-295.75C127.62,-295.75 31.38,-295.75 31.38,-295.75 25.38,-295.75 19.38,-289.75 19.38,-283.75 19.38,-283.75 19.38,-268.25 19.38,-268.25 19.38,-262.25 25.38,-256.25 31.38,-256.25 31.38,-256.25 127.62,-256.25 127.62,-256.25 133.62,-256.25 139.62,-262.25 139.62,-268.25 139.62,-268.25 139.62,-283.75 139.62,-283.75 139.62,-289.75 133.62,-295.75 127.62,-295.75"/>
<text text-anchor="middle" x="79.5" y="-278.45" font-family="Arial" font-size="14.00">run_train.py</text>
<text text-anchor="middle" x="79.5" y="-262.7" font-family="Arial" font-size="14.00">(loop over seeds)</text>
</g>
<!-- subprocess_run -->
<g id="node27" class="node">
<title>subprocess_run</title>
<polygon fill="#74b9ff" stroke="black" points="354.35,-264 244.03,-246 354.35,-228 464.67,-246 354.35,-264"/>
<text text-anchor="middle" x="354.35" y="-240.57" font-family="Arial" font-size="14.00">subprocess.run()</text>
</g>
<!-- run_train_py&#45;&gt;subprocess_run -->
<g id="edge1" class="edge">
<title>run_train_py&#45;&gt;subprocess_run</title>
<path fill="none" stroke="black" d="M140.04,-269.45C179.79,-265.08 232.48,-259.29 275.54,-254.56"/>
<polygon fill="black" stroke="black" points="275.71,-257.95 285.27,-253.38 274.94,-250.99 275.71,-257.95"/>
<text text-anchor="middle" x="191.75" y="-269.5" font-family="Arial" font-size="10.00">calls</text>
</g>
<!-- hyper_tuning_py -->
<g id="node2" class="node">
<title>hyper_tuning_py</title>
<path fill="#ff6b6b" stroke="black" d="M123.5,-121.75C123.5,-121.75 35.5,-121.75 35.5,-121.75 29.5,-121.75 23.5,-115.75 23.5,-109.75 23.5,-109.75 23.5,-94.25 23.5,-94.25 23.5,-88.25 29.5,-82.25 35.5,-82.25 35.5,-82.25 123.5,-82.25 123.5,-82.25 129.5,-82.25 135.5,-88.25 135.5,-94.25 135.5,-94.25 135.5,-109.75 135.5,-109.75 135.5,-115.75 129.5,-121.75 123.5,-121.75"/>
<text text-anchor="middle" x="79.5" y="-104.45" font-family="Arial" font-size="14.00">hyper_tuning.py</text>
<text text-anchor="middle" x="79.5" y="-88.7" font-family="Arial" font-size="14.00">(grid search)</text>
</g>
<!-- main_worker -->
<g id="node6" class="node">
<title>main_worker</title>
<path fill="#1a535c" stroke="black" d="M717.45,-785.75C717.45,-785.75 592.7,-785.75 592.7,-785.75 586.7,-785.75 580.7,-779.75 580.7,-773.75 580.7,-773.75 580.7,-758.25 580.7,-758.25 580.7,-752.25 586.7,-746.25 592.7,-746.25 592.7,-746.25 717.45,-746.25 717.45,-746.25 723.45,-746.25 729.45,-752.25 729.45,-758.25 729.45,-758.25 729.45,-773.75 729.45,-773.75 729.45,-779.75 723.45,-785.75 717.45,-785.75"/>
<text text-anchor="middle" x="655.08" y="-768.45" font-family="Arial" font-size="14.00" fill="white">main_worker(params)</text>
<text text-anchor="middle" x="655.08" y="-752.7" font-family="Arial" font-size="14.00" fill="white">[CENTRAL HUB]</text>
</g>
<!-- hyper_tuning_py&#45;&gt;main_worker -->
<g id="edge5" class="edge">
<title>hyper_tuning_py&#45;&gt;main_worker</title>
<path fill="none" stroke="black" d="M135.68,-113.98C236.75,-136.34 443.54,-184.24 468.2,-207 627.49,-353.96 650.43,-640.66 653.61,-735.05"/>
<polygon fill="black" stroke="black" points="650.13,-734.93 653.91,-744.83 657.13,-734.74 650.13,-734.93"/>
<text text-anchor="middle" x="354.35" y="-209.5" font-family="Arial" font-size="10.00">calls directly</text>
</g>
<!-- create_tuning_summary -->
<g id="node22" class="node">
<title>create_tuning_summary</title>
<path fill="#b2bec3" stroke="black" d="M1052.78,-110C1052.78,-110 894.28,-110 894.28,-110 888.28,-110 882.28,-104 882.28,-98 882.28,-98 882.28,-86 882.28,-86 882.28,-80 888.28,-74 894.28,-74 894.28,-74 1052.78,-74 1052.78,-74 1058.78,-74 1064.78,-80 1064.78,-86 1064.78,-86 1064.78,-98 1064.78,-98 1064.78,-104 1058.78,-110 1052.78,-110"/>
<text text-anchor="middle" x="973.53" y="-86.58" font-family="Arial" font-size="14.00">create_tuning_summary(...)</text>
</g>
<!-- hyper_tuning_py&#45;&gt;create_tuning_summary -->
<g id="edge6" class="edge">
<title>hyper_tuning_py&#45;&gt;create_tuning_summary</title>
<path fill="none" stroke="black" d="M135.96,-101.38C282.61,-99.73 682.25,-95.25 871.1,-93.14"/>
<polygon fill="black" stroke="black" points="870.89,-96.63 880.85,-93.02 870.81,-89.63 870.89,-96.63"/>
<text text-anchor="middle" x="524.45" y="-99.5" font-family="Arial" font-size="10.00">saves results</text>
</g>
<!-- is_valid_combo -->
<g id="node23" class="node">
<title>is_valid_combo</title>
<path fill="#b2bec3" stroke="black" d="M1043.78,-56C1043.78,-56 903.28,-56 903.28,-56 897.28,-56 891.28,-50 891.28,-44 891.28,-44 891.28,-32 891.28,-32 891.28,-26 897.28,-20 903.28,-20 903.28,-20 1043.78,-20 1043.78,-20 1049.78,-20 1055.78,-26 1055.78,-32 1055.78,-32 1055.78,-44 1055.78,-44 1055.78,-50 1049.78,-56 1043.78,-56"/>
<text text-anchor="middle" x="973.53" y="-32.58" font-family="Arial" font-size="14.00">is_valid_combo(params)</text>
</g>
<!-- hyper_tuning_py&#45;&gt;is_valid_combo -->
<g id="edge3" class="edge">
<title>hyper_tuning_py&#45;&gt;is_valid_combo</title>
<path fill="none" stroke="black" d="M135.93,-97.85C144.33,-97.22 152.89,-96.59 161,-96 421.87,-76.96 729.97,-55.11 880.47,-44.49"/>
<polygon fill="black" stroke="black" points="880.3,-47.94 890.03,-43.74 879.8,-40.96 880.3,-47.94"/>
<text text-anchor="middle" x="524.45" y="-74.5" font-family="Arial" font-size="10.00">validates combos</text>
</g>
<!-- itertools_product -->
<g id="node28" class="node">
<title>itertools_product</title>
<polygon fill="#74b9ff" stroke="black" points="354.35,-36 240.5,-18 354.35,0 468.2,-18 354.35,-36"/>
<text text-anchor="middle" x="354.35" y="-12.57" font-family="Arial" font-size="14.00">itertools.product()</text>
</g>
<!-- hyper_tuning_py&#45;&gt;itertools_product -->
<g id="edge4" class="edge">
<title>hyper_tuning_py&#45;&gt;itertools_product</title>
<path fill="none" stroke="black" d="M99.26,-81.86C114.39,-67.02 137.03,-47.79 161,-38 183.07,-28.99 207.69,-23.44 231.75,-20.12"/>
<polygon fill="black" stroke="black" points="231.9,-23.51 241.38,-18.79 231.03,-16.56 231.9,-23.51"/>
<text text-anchor="middle" x="191.75" y="-40.5" font-family="Arial" font-size="10.00">generates grid</text>
</g>
<!-- run_test_tuning_py -->
<g id="node3" class="node">
<title>run_test_tuning_py</title>
<path fill="#ff6b6b" stroke="black" d="M131,-237.75C131,-237.75 28,-237.75 28,-237.75 22,-237.75 16,-231.75 16,-225.75 16,-225.75 16,-210.25 16,-210.25 16,-204.25 22,-198.25 28,-198.25 28,-198.25 131,-198.25 131,-198.25 137,-198.25 143,-204.25 143,-210.25 143,-210.25 143,-225.75 143,-225.75 143,-231.75 137,-237.75 131,-237.75"/>
<text text-anchor="middle" x="79.5" y="-220.45" font-family="Arial" font-size="14.00">run_test_tuning.py</text>
<text text-anchor="middle" x="79.5" y="-204.7" font-family="Arial" font-size="14.00">(test best configs)</text>
</g>
<!-- run_test_tuning_py&#45;&gt;subprocess_run -->
<g id="edge7" class="edge">
<title>run_test_tuning_py&#45;&gt;subprocess_run</title>
<path fill="none" stroke="black" d="M143.44,-224.46C182.16,-228.43 232.13,-233.56 273.61,-237.82"/>
<polygon fill="black" stroke="black" points="273.2,-241.4 283.51,-238.94 273.92,-234.43 273.2,-241.4"/>
</g>
<!-- run_test_py -->
<g id="node4" class="node">
<title>run_test_py</title>
<path fill="#ff6b6b" stroke="black" d="M118.25,-179.75C118.25,-179.75 40.75,-179.75 40.75,-179.75 34.75,-179.75 28.75,-173.75 28.75,-167.75 28.75,-167.75 28.75,-152.25 28.75,-152.25 28.75,-146.25 34.75,-140.25 40.75,-140.25 40.75,-140.25 118.25,-140.25 118.25,-140.25 124.25,-140.25 130.25,-146.25 130.25,-152.25 130.25,-152.25 130.25,-167.75 130.25,-167.75 130.25,-173.75 124.25,-179.75 118.25,-179.75"/>
<text text-anchor="middle" x="79.5" y="-162.45" font-family="Arial" font-size="14.00">run_test.py</text>
<text text-anchor="middle" x="79.5" y="-146.7" font-family="Arial" font-size="14.00">(batch testing)</text>
</g>
<!-- run_test_py&#45;&gt;subprocess_run -->
<g id="edge8" class="edge">
<title>run_test_py&#45;&gt;subprocess_run</title>
<path fill="none" stroke="black" d="M130.55,-175.77C180.14,-191.4 255.6,-215.19 304.7,-230.67"/>
<polygon fill="black" stroke="black" points="303.47,-234.26 314.06,-233.93 305.58,-227.59 303.47,-234.26"/>
</g>
<!-- set_seed -->
<g id="node5" class="node">
<title>set_seed</title>
<path fill="#4ecdc4" stroke="black" d="M1016.03,-782C1016.03,-782 931.03,-782 931.03,-782 925.03,-782 919.03,-776 919.03,-770 919.03,-770 919.03,-758 919.03,-758 919.03,-752 925.03,-746 931.03,-746 931.03,-746 1016.03,-746 1016.03,-746 1022.03,-746 1028.03,-752 1028.03,-758 1028.03,-758 1028.03,-770 1028.03,-770 1028.03,-776 1022.03,-782 1016.03,-782"/>
<text text-anchor="middle" x="973.53" y="-758.58" font-family="Arial" font-size="14.00">set_seed(seed)</text>
</g>
<!-- main_worker&#45;&gt;set_seed -->
<g id="edge9" class="edge">
<title>main_worker&#45;&gt;set_seed</title>
<path fill="none" stroke="black" d="M729.87,-765.53C783.92,-765.19 856.56,-764.73 908.24,-764.41"/>
<polygon fill="black" stroke="black" points="907.96,-767.9 917.94,-764.34 907.92,-760.9 907.96,-767.9"/>
<text text-anchor="middle" x="801.83" y="-767.5" font-family="Arial" font-size="10.00">1. init</text>
</g>
<!-- run_epochs -->
<g id="node7" class="node">
<title>run_epochs</title>
<path fill="#4ecdc4" stroke="black" d="M1018.28,-839.75C1018.28,-839.75 928.78,-839.75 928.78,-839.75 922.78,-839.75 916.78,-833.75 916.78,-827.75 916.78,-827.75 916.78,-812.25 916.78,-812.25 916.78,-806.25 922.78,-800.25 928.78,-800.25 928.78,-800.25 1018.28,-800.25 1018.28,-800.25 1024.28,-800.25 1030.28,-806.25 1030.28,-812.25 1030.28,-812.25 1030.28,-827.75 1030.28,-827.75 1030.28,-833.75 1024.28,-839.75 1018.28,-839.75"/>
<text text-anchor="middle" x="973.53" y="-822.45" font-family="Arial" font-size="14.00">run_epochs(...)</text>
<text text-anchor="middle" x="973.53" y="-806.7" font-family="Arial" font-size="14.00">(train + validate)</text>
</g>
<!-- main_worker&#45;&gt;run_epochs -->
<g id="edge17" class="edge">
<title>main_worker&#45;&gt;run_epochs</title>
<path fill="none" stroke="blue" stroke-width="2" d="M729.87,-778.59C783.07,-787.67 854.27,-799.82 905.78,-808.61"/>
<polygon fill="blue" stroke="blue" stroke-width="2" points="904.01,-812.2 914.46,-810.43 905.19,-805.3 904.01,-812.2"/>
<text text-anchor="middle" x="801.83" y="-801.5" font-family="Arial" font-size="10.00">FOR EACH FOLD</text>
</g>
<!-- evaluate_fn -->
<g id="node11" class="node">
<title>evaluate_fn</title>
<path fill="#ffeaa7" stroke="black" d="M1040.78,-697C1040.78,-697 906.28,-697 906.28,-697 900.28,-697 894.28,-691 894.28,-685 894.28,-685 894.28,-673 894.28,-673 894.28,-667 900.28,-661 906.28,-661 906.28,-661 1040.78,-661 1040.78,-661 1046.78,-661 1052.78,-667 1052.78,-673 1052.78,-673 1052.78,-685 1052.78,-685 1052.78,-691 1046.78,-697 1040.78,-697"/>
<text text-anchor="middle" x="973.53" y="-673.58" font-family="Arial" font-size="14.00">evaluate(model, loader)</text>
</g>
<!-- main_worker&#45;&gt;evaluate_fn -->
<g id="edge23" class="edge">
<title>main_worker&#45;&gt;evaluate_fn</title>
<path fill="none" stroke="black" d="M729.47,-745.82C779.08,-732.18 844.47,-714.21 894.93,-700.33"/>
<polygon fill="black" stroke="black" points="895.75,-703.46 904.46,-697.44 893.89,-696.71 895.75,-703.46"/>
<text text-anchor="middle" x="801.83" y="-742.5" font-family="Arial" font-size="10.00">on test set</text>
</g>
<!-- FCDataset -->
<g id="node14" class="node">
<title>FCDataset</title>
<path fill="#dfe6e9" stroke="black" d="M1001.78,-611.75C1001.78,-611.75 945.28,-611.75 945.28,-611.75 939.28,-611.75 933.28,-605.75 933.28,-599.75 933.28,-599.75 933.28,-584.25 933.28,-584.25 933.28,-578.25 939.28,-572.25 945.28,-572.25 945.28,-572.25 1001.78,-572.25 1001.78,-572.25 1007.78,-572.25 1013.78,-578.25 1013.78,-584.25 1013.78,-584.25 1013.78,-599.75 1013.78,-599.75 1013.78,-605.75 1007.78,-611.75 1001.78,-611.75"/>
<text text-anchor="middle" x="973.53" y="-594.45" font-family="Arial" font-size="14.00">FCDataset</text>
<text text-anchor="middle" x="973.53" y="-578.7" font-family="Arial" font-size="14.00">(standard)</text>
</g>
<!-- main_worker&#45;&gt;FCDataset -->
<g id="edge12" class="edge">
<title>main_worker&#45;&gt;FCDataset</title>
<path fill="none" stroke="black" d="M679.47,-745.76C697.34,-730.88 722.99,-710.77 747.45,-696 805,-661.25 876.11,-630.19 922.81,-611.25"/>
<polygon fill="black" stroke="black" points="924,-614.14 931.97,-607.17 921.38,-607.65 924,-614.14"/>
<text text-anchor="middle" x="801.83" y="-698.5" font-family="Arial" font-size="10.00">test set</text>
</g>
<!-- AugmentedFCDataset -->
<g id="node15" class="node">
<title>AugmentedFCDataset</title>
<path fill="#dfe6e9" stroke="black" d="M1036.65,-553.75C1036.65,-553.75 910.4,-553.75 910.4,-553.75 904.4,-553.75 898.4,-547.75 898.4,-541.75 898.4,-541.75 898.4,-526.25 898.4,-526.25 898.4,-520.25 904.4,-514.25 910.4,-514.25 910.4,-514.25 1036.65,-514.25 1036.65,-514.25 1042.65,-514.25 1048.65,-520.25 1048.65,-526.25 1048.65,-526.25 1048.65,-541.75 1048.65,-541.75 1048.65,-547.75 1042.65,-553.75 1036.65,-553.75"/>
<text text-anchor="middle" x="973.53" y="-536.45" font-family="Arial" font-size="14.00">AugmentedFCDataset</text>
<text text-anchor="middle" x="973.53" y="-520.7" font-family="Arial" font-size="14.00">(augmented)</text>
</g>
<!-- main_worker&#45;&gt;AugmentedFCDataset -->
<g id="edge13" class="edge">
<title>main_worker&#45;&gt;AugmentedFCDataset</title>
<path fill="none" stroke="black" d="M664.61,-746.2C678.31,-716.37 707.74,-659.64 747.45,-624 786.82,-588.67 841.8,-566.33 887.56,-552.75"/>
<polygon fill="black" stroke="black" points="888.43,-555.86 897.08,-549.73 886.5,-549.13 888.43,-555.86"/>
<text text-anchor="middle" x="801.83" y="-626.5" font-family="Arial" font-size="10.00">train set</text>
</g>
<!-- ResNet3D -->
<g id="node16" class="node">
<title>ResNet3D</title>
<path fill="#fdcb6e" stroke="black" d="M1000.65,-465C1000.65,-465 946.4,-465 946.4,-465 940.4,-465 934.4,-459 934.4,-453 934.4,-453 934.4,-441 934.4,-441 934.4,-435 940.4,-429 946.4,-429 946.4,-429 1000.65,-429 1000.65,-429 1006.65,-429 1012.65,-435 1012.65,-441 1012.65,-441 1012.65,-453 1012.65,-453 1012.65,-459 1006.65,-465 1000.65,-465"/>
<text text-anchor="middle" x="973.53" y="-441.57" font-family="Arial" font-size="14.00">ResNet3D</text>
</g>
<!-- main_worker&#45;&gt;ResNet3D -->
<g id="edge14" class="edge">
<title>main_worker&#45;&gt;ResNet3D</title>
<path fill="none" stroke="black" d="M659.3,-746.03C667.07,-703.94 690.58,-605.19 747.45,-547 795.9,-497.43 873.24,-470.54 923.46,-457.48"/>
<polygon fill="black" stroke="black" points="924.2,-460.66 933.05,-454.83 922.5,-453.87 924.2,-460.66"/>
<text text-anchor="middle" x="801.83" y="-549.5" font-family="Arial" font-size="10.00">if model_type=&#39;resnet&#39;</text>
</g>
<!-- DenseNet3D -->
<g id="node17" class="node">
<title>DenseNet3D</title>
<path fill="#fdcb6e" stroke="black" d="M1008.15,-411C1008.15,-411 938.9,-411 938.9,-411 932.9,-411 926.9,-405 926.9,-399 926.9,-399 926.9,-387 926.9,-387 926.9,-381 932.9,-375 938.9,-375 938.9,-375 1008.15,-375 1008.15,-375 1014.15,-375 1020.15,-381 1020.15,-387 1020.15,-387 1020.15,-399 1020.15,-399 1020.15,-405 1014.15,-411 1008.15,-411"/>
<text text-anchor="middle" x="973.53" y="-387.57" font-family="Arial" font-size="14.00">DenseNet3D</text>
</g>
<!-- main_worker&#45;&gt;DenseNet3D -->
<g id="edge15" class="edge">
<title>main_worker&#45;&gt;DenseNet3D</title>
<path fill="none" stroke="black" d="M656.26,-746.08C657.83,-692.94 669.4,-546.25 747.45,-464 791.2,-417.89 864.57,-401.59 915.6,-395.91"/>
<polygon fill="black" stroke="black" points="915.85,-399.3 925.45,-394.82 915.15,-392.34 915.85,-399.3"/>
<text text-anchor="middle" x="801.83" y="-466.5" font-family="Arial" font-size="10.00">if model_type=&#39;densenet&#39;</text>
</g>
<!-- VGG16_3D -->
<g id="node18" class="node">
<title>VGG16_3D</title>
<path fill="#fdcb6e" stroke="black" d="M1005.15,-357C1005.15,-357 941.9,-357 941.9,-357 935.9,-357 929.9,-351 929.9,-345 929.9,-345 929.9,-333 929.9,-333 929.9,-327 935.9,-321 941.9,-321 941.9,-321 1005.15,-321 1005.15,-321 1011.15,-321 1017.15,-327 1017.15,-333 1017.15,-333 1017.15,-345 1017.15,-345 1017.15,-351 1011.15,-357 1005.15,-357"/>
<text text-anchor="middle" x="973.53" y="-333.57" font-family="Arial" font-size="14.00">VGG16_3D</text>
</g>
<!-- main_worker&#45;&gt;VGG16_3D -->
<g id="edge16" class="edge">
<title>main_worker&#45;&gt;VGG16_3D</title>
<path fill="none" stroke="black" d="M658.19,-746.1C666.04,-676.02 695.73,-442.1 747.45,-391 792.63,-346.36 868.06,-337.05 919.01,-336.44"/>
<polygon fill="black" stroke="black" points="918.81,-339.94 928.81,-336.44 918.81,-332.94 918.81,-339.94"/>
<text text-anchor="middle" x="801.83" y="-393.5" font-family="Arial" font-size="10.00">if model_type=&#39;vgg16&#39;</text>
</g>
<!-- resolve_split -->
<g id="node19" class="node">
<title>resolve_split</title>
<path fill="#b2bec3" stroke="black" d="M1047.9,-272C1047.9,-272 899.15,-272 899.15,-272 893.15,-272 887.15,-266 887.15,-260 887.15,-260 887.15,-248 887.15,-248 887.15,-242 893.15,-236 899.15,-236 899.15,-236 1047.9,-236 1047.9,-236 1053.9,-236 1059.9,-242 1059.9,-248 1059.9,-248 1059.9,-260 1059.9,-260 1059.9,-266 1053.9,-272 1047.9,-272"/>
<text text-anchor="middle" x="973.53" y="-248.57" font-family="Arial" font-size="14.00">resolve_split_csv_path(...)</text>
</g>
<!-- main_worker&#45;&gt;resolve_split -->
<g id="edge10" class="edge">
<title>main_worker&#45;&gt;resolve_split</title>
<path fill="none" stroke="black" d="M657.6,-745.86C663.88,-668.26 690.1,-389.71 747.45,-326 780.11,-289.73 831.02,-271.62 876.16,-262.63"/>
<polygon fill="black" stroke="black" points="876.7,-265.9 885.9,-260.63 875.43,-259.02 876.7,-265.9"/>
<text text-anchor="middle" x="801.83" y="-328.5" font-family="Arial" font-size="10.00">2. load split</text>
</g>
<!-- create_train_summary -->
<g id="node20" class="node">
<title>create_train_summary</title>
<path fill="#b2bec3" stroke="black" d="M1056.53,-218C1056.53,-218 890.53,-218 890.53,-218 884.53,-218 878.53,-212 878.53,-206 878.53,-206 878.53,-194 878.53,-194 878.53,-188 884.53,-182 890.53,-182 890.53,-182 1056.53,-182 1056.53,-182 1062.53,-182 1068.53,-188 1068.53,-194 1068.53,-194 1068.53,-206 1068.53,-206 1068.53,-212 1062.53,-218 1056.53,-218"/>
<text text-anchor="middle" x="973.53" y="-194.57" font-family="Arial" font-size="14.00">create_training_summary(...)</text>
</g>
<!-- main_worker&#45;&gt;create_train_summary -->
<g id="edge26" class="edge">
<title>main_worker&#45;&gt;create_train_summary</title>
<path fill="none" stroke="black" d="M656.78,-745.94C660.21,-660.16 677.92,-325.18 747.45,-252 778.14,-219.7 824.57,-205.64 867.31,-200.08"/>
<polygon fill="black" stroke="black" points="867.55,-203.46 877.09,-198.84 866.75,-196.5 867.55,-203.46"/>
<text text-anchor="middle" x="801.83" y="-254.5" font-family="Arial" font-size="10.00">if crossval_flag</text>
</g>
<!-- create_test_summary -->
<g id="node21" class="node">
<title>create_test_summary</title>
<path fill="#b2bec3" stroke="black" d="M1054.28,-164C1054.28,-164 892.78,-164 892.78,-164 886.78,-164 880.78,-158 880.78,-152 880.78,-152 880.78,-140 880.78,-140 880.78,-134 886.78,-128 892.78,-128 892.78,-128 1054.28,-128 1054.28,-128 1060.28,-128 1066.28,-134 1066.28,-140 1066.28,-140 1066.28,-152 1066.28,-152 1066.28,-158 1060.28,-164 1054.28,-164"/>
<text text-anchor="middle" x="973.53" y="-140.57" font-family="Arial" font-size="14.00">create_testing_summary(...)</text>
</g>
<!-- main_worker&#45;&gt;create_test_summary -->
<g id="edge27" class="edge">
<title>main_worker&#45;&gt;create_test_summary</title>
<path fill="none" stroke="black" d="M656.24,-745.84C657.44,-653.01 667.25,-267.79 747.45,-186 778.83,-154 826.32,-142.45 869.61,-139.53"/>
<polygon fill="black" stroke="black" points="869.7,-142.98 879.51,-138.97 869.34,-135.99 869.7,-142.98"/>
<text text-anchor="middle" x="801.83" y="-188.5" font-family="Arial" font-size="10.00">if evaluation_flag</text>
</g>
<!-- sklearn_fold -->
<g id="node24" class="node">
<title>sklearn_fold</title>
<polygon fill="#74b9ff" stroke="black" points="973.53,-971 875.2,-953 973.53,-935 1071.85,-953 973.53,-971"/>
<text text-anchor="middle" x="973.53" y="-947.58" font-family="Arial" font-size="14.00">StratifiedKFold</text>
</g>
<!-- main_worker&#45;&gt;sklearn_fold -->
<g id="edge11" class="edge">
<title>main_worker&#45;&gt;sklearn_fold</title>
<path fill="none" stroke="black" d="M666.27,-786C680.79,-812.58 709.9,-859.28 747.45,-886 792.91,-918.35 854.08,-935.26 901.18,-943.99"/>
<polygon fill="black" stroke="black" points="900.45,-947.59 910.91,-945.89 901.67,-940.7 900.45,-947.59"/>
<text text-anchor="middle" x="801.83" y="-934.5" font-family="Arial" font-size="10.00">3. CV setup</text>
</g>
<!-- torch_load -->
<g id="node26" class="node">
<title>torch_load</title>
<polygon fill="#74b9ff" stroke="black" points="973.53,-917 894.26,-899 973.53,-881 1052.8,-899 973.53,-917"/>
<text text-anchor="middle" x="973.53" y="-893.58" font-family="Arial" font-size="14.00">torch.load()</text>
</g>
<!-- main_worker&#45;&gt;torch_load -->
<g id="edge22" class="edge">
<title>main_worker&#45;&gt;torch_load</title>
<path fill="none" stroke="black" d="M687.69,-786.05C728.26,-810.92 801.51,-852.97 869.4,-877 883.71,-882.06 899.56,-886.15 914.45,-889.37"/>
<polygon fill="black" stroke="black" points="913.6,-892.97 924.1,-891.56 915.01,-886.12 913.6,-892.97"/>
<text text-anchor="middle" x="801.83" y="-872.5" font-family="Arial" font-size="10.00">load checkpoint</text>
</g>
<!-- train_fn -->
<g id="node8" class="node">
<title>train_fn</title>
<path fill="#95e1d3" stroke="black" d="M1365.98,-891C1365.98,-891 1256.23,-891 1256.23,-891 1250.23,-891 1244.23,-885 1244.23,-879 1244.23,-879 1244.23,-867 1244.23,-867 1244.23,-861 1250.23,-855 1256.23,-855 1256.23,-855 1365.98,-855 1365.98,-855 1371.98,-855 1377.98,-861 1377.98,-867 1377.98,-867 1377.98,-879 1377.98,-879 1377.98,-885 1371.98,-891 1365.98,-891"/>
<text text-anchor="middle" x="1311.1" y="-867.58" font-family="Arial" font-size="14.00">train(model, loader)</text>
</g>
<!-- run_epochs&#45;&gt;train_fn -->
<g id="edge18" class="edge">
<title>run_epochs&#45;&gt;train_fn</title>
<path fill="none" stroke="black" stroke-width="2" d="M1030.69,-828.87C1086.14,-837.63 1171.34,-851.08 1233.09,-860.84"/>
<polygon fill="black" stroke="black" stroke-width="2" points="1231.52,-864.45 1241.94,-862.55 1232.61,-857.53 1231.52,-864.45"/>
<text text-anchor="middle" x="1136.6" y="-854.5" font-family="Arial" font-size="10.00">FOR EACH EPOCH</text>
</g>
<!-- validate_fn -->
<g id="node9" class="node">
<title>validate_fn</title>
<path fill="#95e1d3" stroke="black" d="M1376.1,-837C1376.1,-837 1246.1,-837 1246.1,-837 1240.1,-837 1234.1,-831 1234.1,-825 1234.1,-825 1234.1,-813 1234.1,-813 1234.1,-807 1240.1,-801 1246.1,-801 1246.1,-801 1376.1,-801 1376.1,-801 1382.1,-801 1388.1,-807 1388.1,-813 1388.1,-813 1388.1,-825 1388.1,-825 1388.1,-831 1382.1,-837 1376.1,-837"/>
<text text-anchor="middle" x="1311.1" y="-813.58" font-family="Arial" font-size="14.00">validate(model, loader)</text>
</g>
<!-- run_epochs&#45;&gt;validate_fn -->
<g id="edge19" class="edge">
<title>run_epochs&#45;&gt;validate_fn</title>
<path fill="none" stroke="black" d="M1030.69,-819.83C1083.15,-819.68 1162.23,-819.44 1222.89,-819.26"/>
<polygon fill="black" stroke="black" points="1222.62,-822.76 1232.61,-819.23 1222.6,-815.76 1222.62,-822.76"/>
<text text-anchor="middle" x="1136.6" y="-821.5" font-family="Arial" font-size="10.00">after train</text>
</g>
<!-- plot_losses -->
<g id="node10" class="node">
<title>plot_losses</title>
<path fill="#95e1d3" stroke="black" d="M1350.98,-783C1350.98,-783 1271.23,-783 1271.23,-783 1265.23,-783 1259.23,-777 1259.23,-771 1259.23,-771 1259.23,-759 1259.23,-759 1259.23,-753 1265.23,-747 1271.23,-747 1271.23,-747 1350.98,-747 1350.98,-747 1356.98,-747 1362.98,-753 1362.98,-759 1362.98,-759 1362.98,-771 1362.98,-771 1362.98,-777 1356.98,-783 1350.98,-783"/>
<text text-anchor="middle" x="1311.1" y="-759.58" font-family="Arial" font-size="14.00">plot_losses(...)</text>
</g>
<!-- run_epochs&#45;&gt;plot_losses -->
<g id="edge21" class="edge">
<title>run_epochs&#45;&gt;plot_losses</title>
<path fill="none" stroke="black" d="M1030.69,-810.79C1090.8,-800.94 1185.89,-785.36 1248.14,-775.16"/>
<polygon fill="black" stroke="black" points="1248.68,-778.45 1257.98,-773.38 1247.55,-771.54 1248.68,-778.45"/>
<text text-anchor="middle" x="1136.6" y="-802.5" font-family="Arial" font-size="10.00">optional</text>
</g>
<!-- torch_save -->
<g id="node25" class="node">
<title>torch_save</title>
<polygon fill="#74b9ff" stroke="black" points="1311.1,-968 1229.01,-950 1311.1,-932 1393.2,-950 1311.1,-968"/>
<text text-anchor="middle" x="1311.1" y="-944.58" font-family="Arial" font-size="14.00">torch.save()</text>
</g>
<!-- run_epochs&#45;&gt;torch_save -->
<g id="edge20" class="edge">
<title>run_epochs&#45;&gt;torch_save</title>
<path fill="none" stroke="black" d="M1014.99,-840.05C1074.67,-869.51 1181.31,-921.73 1200.1,-928 1215.86,-933.26 1233.34,-937.45 1249.63,-940.71"/>
<polygon fill="black" stroke="black" points="1248.66,-944.28 1259.14,-942.72 1249.97,-937.41 1248.66,-944.28"/>
<text text-anchor="middle" x="1136.6" y="-921.5" font-family="Arial" font-size="10.00">save checkpoint</text>
</g>
<!-- compute_metrics -->
<g id="node12" class="node">
<title>compute_metrics</title>
<path fill="#ffeaa7" stroke="black" d="M1406.85,-697C1406.85,-697 1215.35,-697 1215.35,-697 1209.35,-697 1203.35,-691 1203.35,-685 1203.35,-685 1203.35,-673 1203.35,-673 1203.35,-667 1209.35,-661 1215.35,-661 1215.35,-661 1406.85,-661 1406.85,-661 1412.85,-661 1418.85,-667 1418.85,-673 1418.85,-673 1418.85,-685 1418.85,-685 1418.85,-691 1412.85,-697 1406.85,-697"/>
<text text-anchor="middle" x="1311.1" y="-673.58" font-family="Arial" font-size="14.00">compute_metrics(y_true, y_pred)</text>
</g>
<!-- evaluate_fn&#45;&gt;compute_metrics -->
<g id="edge24" class="edge">
<title>evaluate_fn&#45;&gt;compute_metrics</title>
<path fill="none" stroke="black" d="M1053.2,-679C1094.54,-679 1146.05,-679 1192.07,-679"/>
<polygon fill="black" stroke="black" points="1192.02,-682.5 1202.02,-679 1192.02,-675.5 1192.02,-682.5"/>
<text text-anchor="middle" x="1136.6" y="-681.5" font-family="Arial" font-size="10.00">compute</text>
</g>
<!-- plot_confusion -->
<g id="node13" class="node">
<title>plot_confusion</title>
<path fill="#ffeaa7" stroke="black" d="M1647.85,-697C1647.85,-697 1503.6,-697 1503.6,-697 1497.6,-697 1491.6,-691 1491.6,-685 1491.6,-685 1491.6,-673 1491.6,-673 1491.6,-667 1497.6,-661 1503.6,-661 1503.6,-661 1647.85,-661 1647.85,-661 1653.85,-661 1659.85,-667 1659.85,-673 1659.85,-673 1659.85,-685 1659.85,-685 1659.85,-691 1653.85,-697 1647.85,-697"/>
<text text-anchor="middle" x="1575.73" y="-673.58" font-family="Arial" font-size="14.00">plot_confusion_matrix(...)</text>
</g>
<!-- compute_metrics&#45;&gt;plot_confusion -->
<g id="edge25" class="edge">
<title>compute_metrics&#45;&gt;plot_confusion</title>
<path fill="none" stroke="black" d="M1419.3,-679C1439.53,-679 1460.54,-679 1480.34,-679"/>
<polygon fill="black" stroke="black" points="1480.2,-682.5 1490.2,-679 1480.2,-675.5 1480.2,-682.5"/>
<text text-anchor="middle" x="1456.73" y="-681.5" font-family="Arial" font-size="10.00">optional</text>
</g>
<!-- subprocess_run&#45;&gt;main_worker -->
<g id="edge2" class="edge">
<title>subprocess_run&#45;&gt;main_worker</title>
<path fill="none" stroke="black" d="M364.95,-262.71C407.78,-337.26 581.68,-639.98 637.06,-736.37"/>
<polygon fill="black" stroke="black" points="634.46,-737.88 642.48,-744.81 640.53,-734.4 634.46,-737.88"/>
<text text-anchor="middle" x="524.45" y="-599.5" font-family="Arial" font-size="10.00">launches run.py</text>
</g>
<!-- legend_entry -->
<g id="node29" class="node">
<title>legend_entry</title>
<path fill="#ff6b6b" stroke="black" d="M111.88,-830C111.88,-830 47.12,-830 47.12,-830 41.12,-830 35.12,-824 35.12,-818 35.12,-818 35.12,-806 35.12,-806 35.12,-800 41.12,-794 47.12,-794 47.12,-794 111.88,-794 111.88,-794 117.88,-794 123.88,-800 123.88,-806 123.88,-806 123.88,-818 123.88,-818 123.88,-824 117.88,-830 111.88,-830"/>
<text text-anchor="middle" x="79.5" y="-806.58" font-family="Arial" font-size="14.00">Entry Points</text>
</g>
<!-- legend_core -->
<g id="node30" class="node">
<title>legend_core</title>
<path fill="#1a535c" stroke="black" d="M108.12,-776C108.12,-776 50.88,-776 50.88,-776 44.88,-776 38.88,-770 38.88,-764 38.88,-764 38.88,-752 38.88,-752 38.88,-746 44.88,-740 50.88,-740 50.88,-740 108.12,-740 108.12,-740 114.12,-740 120.12,-746 120.12,-752 120.12,-752 120.12,-764 120.12,-764 120.12,-770 114.12,-776 108.12,-776"/>
<text text-anchor="middle" x="79.5" y="-752.58" font-family="Arial" font-size="14.00" fill="white">Core Logic</text>
</g>
<!-- legend_train -->
<g id="node31" class="node">
<title>legend_train</title>
<path fill="#95e1d3" stroke="black" d="M99.88,-722C99.88,-722 59.12,-722 59.12,-722 53.12,-722 47.12,-716 47.12,-710 47.12,-710 47.12,-698 47.12,-698 47.12,-692 53.12,-686 59.12,-686 59.12,-686 99.88,-686 99.88,-686 105.88,-686 111.88,-692 111.88,-698 111.88,-698 111.88,-710 111.88,-710 111.88,-716 105.88,-722 99.88,-722"/>
<text text-anchor="middle" x="79.5" y="-698.58" font-family="Arial" font-size="14.00">Training</text>
</g>
<!-- legend_test -->
<g id="node32" class="node">
<title>legend_test</title>
<path fill="#ffeaa7" stroke="black" d="M96.88,-668C96.88,-668 62.12,-668 62.12,-668 56.12,-668 50.12,-662 50.12,-656 50.12,-656 50.12,-644 50.12,-644 50.12,-638 56.12,-632 62.12,-632 62.12,-632 96.88,-632 96.88,-632 102.88,-632 108.88,-638 108.88,-644 108.88,-644 108.88,-656 108.88,-656 108.88,-662 102.88,-668 96.88,-668"/>
<text text-anchor="middle" x="79.5" y="-644.58" font-family="Arial" font-size="14.00">Testing</text>
</g>
<!-- legend_data -->
<g id="node33" class="node">
<title>legend_data</title>
<path fill="#dfe6e9" stroke="black" d="M94.5,-614C94.5,-614 64.5,-614 64.5,-614 58.5,-614 52.5,-608 52.5,-602 52.5,-602 52.5,-590 52.5,-590 52.5,-584 58.5,-578 64.5,-578 64.5,-578 94.5,-578 94.5,-578 100.5,-578 106.5,-584 106.5,-590 106.5,-590 106.5,-602 106.5,-602 106.5,-608 100.5,-614 94.5,-614"/>
<text text-anchor="middle" x="79.5" y="-590.58" font-family="Arial" font-size="14.00">Data</text>
</g>
<!-- legend_models -->
<g id="node34" class="node">
<title>legend_models</title>
<path fill="#fdcb6e" stroke="black" d="M97.62,-560C97.62,-560 61.38,-560 61.38,-560 55.38,-560 49.38,-554 49.38,-548 49.38,-548 49.38,-536 49.38,-536 49.38,-530 55.38,-524 61.38,-524 61.38,-524 97.62,-524 97.62,-524 103.62,-524 109.62,-530 109.62,-536 109.62,-536 109.62,-548 109.62,-548 109.62,-554 103.62,-560 97.62,-560"/>
<text text-anchor="middle" x="79.5" y="-536.58" font-family="Arial" font-size="14.00">Models</text>
</g>
<!-- legend_utils -->
<g id="node35" class="node">
<title>legend_utils</title>
<path fill="#b2bec3" stroke="black" d="M94.5,-506C94.5,-506 64.5,-506 64.5,-506 58.5,-506 52.5,-500 52.5,-494 52.5,-494 52.5,-482 52.5,-482 52.5,-476 58.5,-470 64.5,-470 64.5,-470 94.5,-470 94.5,-470 100.5,-470 106.5,-476 106.5,-482 106.5,-482 106.5,-494 106.5,-494 106.5,-500 100.5,-506 94.5,-506"/>
<text text-anchor="middle" x="79.5" y="-482.57" font-family="Arial" font-size="14.00">Utils</text>
</g>
<!-- legend_external -->
<g id="node36" class="node">
<title>legend_external</title>
<polygon fill="#74b9ff" stroke="black" points="79.5,-452 17.87,-434 79.5,-416 141.13,-434 79.5,-452"/>
<text text-anchor="middle" x="79.5" y="-428.57" font-family="Arial" font-size="14.00">External</text>
</g>
</g>
</svg>
